<?xml version="1.0" ?><!DOCTYPE svg  PUBLIC '-//W3C//DTD SVG 1.1//EN'  'http://www.w3.org/Graphics/SVG/1.1/DTD/svg11.dtd'><svg height="512px" style="enable-background:new 0 0 512 512;" version="1.1" viewBox="0 0 512 512" width="512px" xml:space="preserve" xmlns="http://www.w3.org/2000/svg" xmlns:xlink="http://www.w3.org/1999/xlink"><g id="Eway_x2C___bank_x2C__debit_x2C__commercial_x2C__cover_x2C__credit_x2C__card_x2C_"><g><path d="M495.953,389.995c0,8.842-7.123,15.965-15.965,15.965H32.006    c-8.836,0-15.959-7.123-15.959-15.965V121.999c0-8.836,7.123-15.959,15.959-15.959h447.982c8.842,0,15.965,7.123,15.965,15.959    V389.995z" style="fill-rule:evenodd;clip-rule:evenodd;fill:#FDB82D;"/><polygon points="225.16,234.536 245.988,234.536 245.988,236.791     239.314,236.791 253.295,276.737 253.475,276.737 261.59,253.021 256.18,236.791 249.955,236.791 249.955,234.536     275.748,234.536 275.748,236.791 266.006,236.791 279.717,276.737 279.889,276.737 294.047,236.791 285.57,236.791     285.57,234.536 299.459,234.536 299.459,236.791 297.209,236.791 278.902,287.829 273.492,287.829 263.029,256.989     262.846,256.989 252.025,287.829 246.801,287.829 229.129,236.791 225.16,236.791   " style="fill-rule:evenodd;clip-rule:evenodd;fill:#231F20;"/><path d="M301.713,252.301v-16.865    c2.711-1.078,5.324-1.978,7.938-2.612c2.525-0.722,5.23-1.085,8.027-1.085c3.248,0,6.045,0.456,8.387,1.263    c2.342,0.814,4.326,1.806,5.859,3.069c1.535,1.263,2.705,2.612,3.426,4.239c0.721,1.62,1.078,3.155,1.078,4.775v38.96h5.053v2.249    h-14.152v-9.106h-0.271c-1.178,3.247-3.248,5.859-5.953,7.851c-2.797,1.977-6.045,2.975-9.828,2.975    c-4.693,0-8.57-1.269-11.453-3.789c-2.885-2.618-4.418-6.131-4.418-10.733c0-3.062,0.541-5.496,1.625-7.302    c1.08-1.892,2.521-3.34,4.326-4.417c1.799-1.086,3.877-1.898,6.131-2.348c2.25-0.543,4.604-0.993,6.945-1.442    c2.34-0.45,4.688-0.899,6.943-1.442c2.248-0.449,4.232-1.263,6.045-2.342v-10.918c0-3.333-0.912-5.675-2.527-7.123    c-1.625-1.441-3.789-2.162-6.586-2.162c-1.805,0-3.334,0.271-4.596,0.905c-1.264,0.536-2.436,1.442-3.426,2.791    c-0.992,1.356-1.992,3.248-2.977,5.682c-0.906,2.347-2.076,5.41-3.34,9.021h-2.256V252.301z M327.328,256.989    c-2.891,1.355-5.59,2.255-8.209,2.798c-2.617,0.449-4.959,1.084-6.857,1.891c-1.977,0.814-3.512,2.076-4.596,3.697    c-1.172,1.713-1.799,4.419-1.799,8.115c0,3.968,0.715,6.766,2.162,8.386c1.441,1.621,3.518,2.44,6.316,2.44    c3.961-0.185,7.121-1.99,9.463-5.503c2.342-3.518,3.611-8.207,3.611-13.98v-7.844H327.328z" style="fill-rule:evenodd;clip-rule:evenodd;fill:#231F20;"/><path d="M335.621,234.45h22.188v2.255h-7.764l15.244,36.335    l12.533-36.335h-9.107v-2.255H385.4v2.255h-4.695l-19.113,54.913c-0.992,2.883-1.898,5.225-2.883,7.029    c-0.9,1.807-1.898,3.248-2.982,4.24c-0.986,0.992-2.162,1.627-3.334,1.984c-1.17,0.363-2.434,0.542-3.967,0.542    c-3.697,0-6.316-0.813-7.844-2.435v-16.235h2.162l2.889,10.099c0.715,2.711,1.529,4.424,2.342,5.145    c0.721,0.808,1.529,1.172,2.436,1.172c0.99,0,1.982-0.364,2.975-1.264c0.9-0.807,1.805-1.984,2.613-3.426    c0.813-1.441,1.625-3.154,2.348-5.139c0.721-1.984,1.441-4.061,2.076-6.316l-20.926-50.31h-3.875V234.45L335.621,234.45z" style="fill-rule:evenodd;clip-rule:evenodd;fill:#231F20;"/><path d="M228.225,246.619c0-31.739-25.701-57.439-57.439-57.439    c-31.652,0-57.445,25.7-57.445,57.439c0,31.745,25.793,57.438,57.445,57.438C202.523,304.058,228.225,278.364,228.225,246.619    L228.225,246.619z" style="fill-rule:evenodd;clip-rule:evenodd;fill:#231F20;"/><path d="M154.734,252.207h55.725c0.092-1.527,0-5.046,0-5.767    c0-12.263-4.412-23.63-10.998-30.39c-6.672-6.673-17.406-9.649-27.869-9.649c-10.729,0-22.182,3.611-28.941,10.463    c-6.76,6.944-10.641,17.851-10.641,30.297c0,25.787,15.059,39.675,40.309,39.675c9.107,0,18.393-2.255,24.166-6.401    c5.867-4.24,10.998-10.641,13.162-18.214l-22.633-0.363C180.969,276.466,155.004,273.762,154.734,252.207L154.734,252.207z     M187.465,238.775h-31.918C155.275,217.765,187.465,218.935,187.465,238.775L187.465,238.775z" style="fill-rule:evenodd;clip-rule:evenodd;fill:#FFFFFF;"/><path d="M252.66,296.394c-60.322,0.635-113.979,9.471-149.234,26.421    c0,0,37.24-12.626,149.328-12.626c60.051,0,80.705,0.814,149.148,12.176C402.531,322.458,347.525,295.493,252.66,296.394    L252.66,296.394z" style="fill-rule:evenodd;clip-rule:evenodd;fill:#231F20;"/><polygon points="391.889,236.249 389.006,236.249 389.006,234.45     396.936,234.45 396.936,236.249 394.053,236.249 394.053,244.186 391.889,244.186 391.889,236.249   " style="fill-rule:evenodd;clip-rule:evenodd;fill:#231F20;"/><polygon points="398.113,234.45 401.088,234.45 403.344,241.209     403.43,241.209 405.6,234.45 408.568,234.45 408.568,244.186 406.586,244.186 406.586,237.333 406.586,237.333 404.15,244.186     402.531,244.186 400.09,237.426 400.09,237.426 400.09,244.186 398.113,244.186 398.113,234.45   " style="fill-rule:evenodd;clip-rule:evenodd;fill:#231F20;"/></g></g><g id="Layer_1"/></svg>