<?xml version="1.0" encoding="UTF-8"?>
<svg xmlns="http://www.w3.org/2000/svg" xmlns:xlink="http://www.w3.org/1999/xlink" viewBox="0 0 64 64" version="1.1" width="64px" height="64px">
<g id="surface1">
<path style=" fill:#9FDDFF;" d="M 31.558594 25.609375 L 30.261719 34 L 28.828125 43.21875 C 28.679688 44.300781 27.761719 45.109375 26.671875 45.121094 L 24.089844 45.121094 C 23.460938 45.113281 22.863281 44.835938 22.449219 44.359375 C 22.019531 43.851563 21.832031 43.179688 21.929688 42.519531 L 23.25 34 L 24.25 27.441406 L 21.679688 34 L 17.890625 43.609375 C 17.570313 44.441406 16.78125 44.996094 15.890625 45.011719 L 12.398438 45.011719 C 11.390625 45 10.515625 44.304688 10.28125 43.320313 L 8 34 L 6.488281 28 C 6.410156 27.578125 6.152344 27.214844 5.78125 27 C 4.554688 26.332031 3.25 25.808594 1.898438 25.449219 C 1.296875 25.296875 0.910156 24.707031 1.003906 24.09375 C 1.101563 23.476563 1.648438 23.035156 2.269531 23.070313 L 9.921875 23.070313 C 11.582031 22.9375 13.0625 24.113281 13.308594 25.761719 L 14.78125 33.761719 L 18.261719 23.621094 C 18.402344 23.195313 18.8125 22.917969 19.261719 22.941406 L 23.910156 22.941406 C 24.207031 22.9375 24.492188 23.0625 24.683594 23.289063 C 24.878906 23.515625 24.960938 23.816406 24.910156 24.109375 L 24.910156 24.351563 C 25.230469 23.519531 26.023438 22.96875 26.910156 22.960938 L 29.480469 22.960938 C 30.113281 22.957031 30.71875 23.238281 31.128906 23.71875 C 31.542969 24.257813 31.699219 24.949219 31.558594 25.609375 Z "/>
<path style=" fill:#9FDDFF;" d="M 63 42.421875 L 61.289063 34 L 59.460938 24.808594 C 59.269531 23.773438 58.375 23.015625 57.320313 23 L 54.320313 23 C 52.863281 22.902344 51.515625 23.765625 51 25.128906 L 47.511719 34 L 45.890625 38 C 45.890625 37.851563 45.890625 37.691406 45.890625 37.53125 C 45.902344 36.257813 45.496094 35.019531 44.738281 34 C 43.667969 32.742188 42.347656 31.722656 40.859375 31 C 40.148438 30.601563 38.949219 29.921875 38.949219 29.601563 C 38.949219 29.28125 39.949219 28.910156 40.949219 28.910156 C 41.785156 28.914063 42.617188 29.039063 43.421875 29.28125 C 43.621094 29.347656 43.835938 29.382813 44.050781 29.378906 C 45.113281 29.375 46.015625 28.59375 46.171875 27.539063 L 46.46875 25.738281 C 46.671875 24.640625 46.011719 23.5625 44.941406 23.238281 C 43.714844 22.875 42.449219 22.679688 41.171875 22.660156 C 37.941406 22.660156 31.828125 24.261719 31.828125 30.320313 C 31.800781 31.664063 32.265625 32.972656 33.128906 34 C 34.117188 35.058594 35.296875 35.929688 36.601563 36.558594 C 37.679688 37.171875 38.710938 37.738281 38.710938 38.300781 C 38.710938 39.03125 37.21875 39.21875 36.351563 39.21875 C 35.265625 39.214844 34.195313 39.019531 33.179688 38.640625 C 32.921875 38.53125 32.640625 38.476563 32.359375 38.480469 C 31.296875 38.488281 30.394531 39.261719 30.230469 40.308594 L 29.921875 42.191406 C 29.738281 43.25 30.34375 44.289063 31.359375 44.648438 C 32.96875 45.199219 34.660156 45.476563 36.359375 45.46875 C 38.890625 45.46875 42.238281 44.550781 44.21875 42.269531 C 44.039063 42.914063 44.152344 43.605469 44.53125 44.160156 C 44.925781 44.773438 45.601563 45.148438 46.328125 45.160156 L 48.898438 45.160156 C 49.859375 45.160156 50.707031 44.542969 51 43.628906 L 51.46875 42.28125 C 51.488281 42.199219 51.558594 42.140625 51.640625 42.128906 L 56.171875 42.128906 C 56.269531 42.144531 56.347656 42.222656 56.359375 42.320313 L 56.550781 43.320313 C 56.746094 44.359375 57.644531 45.113281 58.699219 45.128906 L 60.839844 45.128906 C 61.488281 45.132813 62.105469 44.835938 62.511719 44.328125 C 62.953125 43.800781 63.132813 43.097656 63 42.421875 Z M 53.621094 36 L 54.320313 34 L 54.558594 33.300781 L 54.699219 34 L 55.089844 36 Z "/>
<path style=" fill:#85CBF8;" d="M 8 34 L 21.679688 34 L 17.890625 43.609375 C 17.570313 44.441406 16.78125 44.996094 15.890625 45.011719 L 12.398438 45.011719 C 11.390625 45 10.515625 44.304688 10.28125 43.320313 Z "/>
<path style=" fill:#85CBF8;" d="M 30.261719 34 L 28.828125 43.21875 C 28.679688 44.300781 27.761719 45.109375 26.671875 45.121094 L 24.089844 45.121094 C 23.460938 45.113281 22.863281 44.835938 22.449219 44.359375 C 22.019531 43.851563 21.832031 43.179688 21.929688 42.519531 L 23.25 34 Z "/>
<path style=" fill:#85CBF8;" d="M 62.480469 44.320313 C 62.074219 44.828125 61.460938 45.121094 60.808594 45.121094 L 58.671875 45.121094 C 57.613281 45.105469 56.714844 44.347656 56.519531 43.308594 L 56.328125 42.308594 C 56.316406 42.210938 56.238281 42.132813 56.140625 42.121094 L 51.609375 42.121094 C 51.527344 42.128906 51.460938 42.191406 51.441406 42.269531 L 51 43.628906 C 50.699219 44.511719 49.875 45.109375 48.941406 45.121094 L 46.339844 45.121094 C 45.609375 45.109375 44.933594 44.734375 44.539063 44.121094 C 44.164063 43.566406 44.050781 42.875 44.230469 42.230469 C 42.230469 44.511719 38.898438 45.429688 36.371094 45.429688 C 34.667969 45.4375 32.980469 45.160156 31.371094 44.609375 C 30.355469 44.25 29.746094 43.210938 29.929688 42.148438 L 30.238281 40.269531 C 30.40625 39.222656 31.308594 38.445313 32.371094 38.441406 C 32.652344 38.4375 32.929688 38.492188 33.191406 38.601563 C 34.203125 38.980469 35.277344 39.175781 36.359375 39.179688 C 37.230469 39.179688 38.71875 38.988281 38.71875 38.261719 C 38.71875 37.699219 37.71875 37.128906 36.609375 36.519531 C 35.304688 35.902344 34.125 35.046875 33.128906 34 L 61.289063 34 L 63 42.421875 C 63.125 43.097656 62.933594 43.796875 62.480469 44.320313 Z "/>
<path style=" fill:#8D6C9F;" d="M 54.671875 31.140625 C 54.414063 31.136719 54.183594 31.304688 54.109375 31.550781 L 52.5 36.171875 C 52.429688 36.355469 52.453125 36.566406 52.5625 36.734375 C 52.675781 36.902344 52.859375 37.003906 53.058594 37.011719 L 55.570313 37.011719 C 55.753906 37.003906 55.921875 36.914063 56.035156 36.769531 C 56.144531 36.625 56.1875 36.4375 56.148438 36.261719 L 55.25 31.640625 C 55.207031 31.351563 54.960938 31.140625 54.671875 31.140625 Z "/>
<path style=" fill:#8D6C9F;" d="M 63.941406 42.230469 L 60.441406 24.609375 C 60.152344 23.109375 58.847656 22.019531 57.320313 22 L 54.320313 22 C 52.472656 21.953125 50.792969 23.078125 50.140625 24.808594 L 46.261719 34.519531 C 45.140625 32.238281 42.898438 30.96875 41.390625 30.121094 L 41 29.898438 C 41.730469 29.90625 42.453125 30.015625 43.148438 30.230469 C 43.453125 30.324219 43.769531 30.371094 44.089844 30.371094 C 45.644531 30.363281 46.964844 29.226563 47.199219 27.691406 L 47.5 25.890625 C 47.777344 24.292969 46.820313 22.742188 45.269531 22.269531 C 43.957031 21.875 42.59375 21.664063 41.21875 21.640625 C 38.789063 21.640625 34.890625 22.46875 32.640625 25.148438 C 32.609375 24.414063 32.332031 23.707031 31.851563 23.148438 C 31.246094 22.414063 30.339844 21.992188 29.390625 22 L 26.820313 22 C 26.234375 22 25.65625 22.167969 25.160156 22.480469 C 24.800781 22.167969 24.339844 21.992188 23.859375 21.988281 L 19.210938 21.988281 C 18.355469 21.992188 17.597656 22.53125 17.320313 23.339844 L 15.078125 29.859375 L 14.300781 25.558594 C 13.941406 23.453125 12.0625 21.949219 9.929688 22.058594 L 2.269531 22.058594 C 1.15625 22.039063 0.199219 22.851563 0.0390625 23.953125 C -0.121094 25.054688 0.566406 26.105469 1.640625 26.398438 C 2.910156 26.761719 4.136719 27.273438 5.289063 27.921875 C 5.40625 27.992188 5.492188 28.105469 5.519531 28.238281 L 9.308594 43.558594 C 9.65625 44.988281 10.929688 45.996094 12.398438 46 L 15.859375 46 C 17.179688 46.023438 18.375 45.226563 18.859375 44 L 21.949219 36.160156 L 20.949219 42.390625 C 20.808594 43.324219 21.078125 44.277344 21.691406 45 C 22.289063 45.703125 23.167969 46.109375 24.089844 46.109375 L 26.660156 46.109375 C 27.839844 46.109375 28.921875 45.457031 29.46875 44.410156 C 29.84375 44.957031 30.378906 45.375 31 45.601563 C 32.71875 46.183594 34.523438 46.476563 36.339844 46.46875 C 38.871094 46.492188 41.347656 45.722656 43.421875 44.269531 C 43.496094 44.429688 43.582031 44.582031 43.679688 44.730469 C 44.265625 45.601563 45.25 46.125 46.300781 46.128906 L 48.871094 46.128906 C 50.226563 46.117188 51.429688 45.253906 51.871094 43.96875 L 52.160156 43.148438 L 55.429688 43.148438 L 55.5 43.519531 C 55.78125 45.03125 57.09375 46.128906 58.628906 46.140625 L 60.769531 46.140625 C 61.730469 46.15625 62.644531 45.738281 63.261719 45 C 63.898438 44.230469 64.148438 43.207031 63.941406 42.230469 Z M 16.941406 43.230469 C 16.769531 43.683594 16.335938 43.992188 15.851563 44 L 12.398438 44 C 11.847656 43.992188 11.375 43.609375 11.25 43.070313 L 7.460938 27.769531 C 7.296875 27.097656 6.863281 26.519531 6.261719 26.179688 C 4.964844 25.457031 3.589844 24.882813 2.160156 24.480469 C 1.96875 24.429688 1.878906 24.070313 2.269531 24.070313 L 9.921875 24.070313 C 11.074219 23.941406 12.125 24.734375 12.320313 25.878906 L 14.070313 35.53125 C 14.109375 35.820313 14.355469 36.039063 14.648438 36.039063 C 14.902344 36.039063 15.125 35.871094 15.199219 35.628906 L 19.199219 24 L 23.851563 24 L 23.851563 24.128906 C 23.773438 24.332031 23.714844 24.546875 23.679688 24.761719 L 23.308594 27.160156 Z M 30.570313 25.460938 L 27.839844 43.070313 C 27.761719 43.660156 27.265625 44.105469 26.671875 44.121094 L 24.089844 44.121094 C 23.730469 44.109375 23.398438 43.941406 23.171875 43.664063 C 22.949219 43.382813 22.855469 43.023438 22.921875 42.671875 L 25.261719 27.558594 C 25.261719 27.558594 25.261719 27.460938 25.261719 27.410156 L 25.730469 24.699219 C 25.921875 24.269531 26.351563 23.996094 26.820313 24 L 29.390625 24 C 29.75 24.007813 30.089844 24.175781 30.320313 24.457031 C 30.546875 24.738281 30.636719 25.105469 30.570313 25.460938 Z M 31.398438 33.140625 C 32.398438 35.378906 34.558594 36.570313 36.109375 37.441406 C 36.46875 37.640625 36.949219 37.910156 37.308594 38.140625 C 36.980469 38.199219 36.644531 38.226563 36.308594 38.21875 C 35.351563 38.21875 34.402344 38.042969 33.511719 37.699219 C 33.132813 37.546875 32.726563 37.46875 32.320313 37.46875 C 31.714844 37.46875 31.121094 37.640625 30.609375 37.96875 Z M 36.398438 44.46875 C 34.804688 44.476563 33.222656 44.21875 31.710938 43.710938 C 31.160156 43.503906 30.835938 42.929688 30.941406 42.351563 L 31.25 40.46875 C 31.328125 39.894531 31.820313 39.46875 32.398438 39.46875 C 32.550781 39.472656 32.699219 39.503906 32.839844 39.558594 C 33.96875 39.992188 35.167969 40.214844 36.378906 40.21875 C 38.191406 40.21875 39.75 39.660156 39.75 38.289063 C 39.75 35.558594 32.859375 35.5 32.859375 30.289063 C 32.859375 24.769531 38.730469 23.628906 41.210938 23.628906 C 42.394531 23.652344 43.566406 23.839844 44.699219 24.179688 C 45.277344 24.367188 45.628906 24.953125 45.519531 25.550781 L 45.21875 27.351563 C 45.136719 27.914063 44.660156 28.335938 44.089844 28.351563 C 43.976563 28.351563 43.859375 28.332031 43.75 28.300781 C 42.851563 28.019531 41.917969 27.875 40.980469 27.871094 C 39.371094 27.871094 37.980469 28.351563 37.980469 29.570313 C 37.980469 31.839844 44.980469 32.328125 44.980469 37.570313 C 44.898438 42.621094 39.769531 44.46875 36.371094 44.46875 Z M 60.839844 44.121094 L 58.671875 44.121094 C 58.089844 44.109375 57.601563 43.691406 57.5 43.121094 L 57.308594 42.121094 C 57.210938 41.550781 56.71875 41.128906 56.140625 41.121094 L 51.609375 41.121094 C 51.097656 41.125 50.648438 41.453125 50.488281 41.941406 L 50 43.300781 C 49.839844 43.785156 49.390625 44.117188 48.878906 44.121094 L 46.339844 44.121094 C 45.933594 44.101563 45.558594 43.886719 45.339844 43.542969 C 45.121094 43.195313 45.082031 42.765625 45.238281 42.390625 L 52 25.5 C 52.355469 24.550781 53.285156 23.941406 54.300781 24 L 57.300781 24 C 57.878906 24.011719 58.371094 24.429688 58.46875 25 L 62 42.621094 C 62.078125 42.980469 61.988281 43.359375 61.757813 43.652344 C 61.527344 43.941406 61.179688 44.113281 60.808594 44.121094 Z "/>
<path style=" fill:#8D6C9F;" d="M 9 20.058594 C 9.550781 20.058594 10 19.613281 10 19.058594 L 10 17.058594 C 10 16.507813 9.550781 16.058594 9 16.058594 C 8.449219 16.058594 8 16.507813 8 17.058594 L 8 19.058594 C 8 19.613281 8.449219 20.058594 9 20.058594 Z "/>
<path style=" fill:#8D6C9F;" d="M 4 20.058594 C 4.550781 20.058594 5 19.613281 5 19.058594 L 5 17.058594 C 5 16.507813 4.550781 16.058594 4 16.058594 C 3.449219 16.058594 3 16.507813 3 17.058594 L 3 19.058594 C 3 19.613281 3.449219 20.058594 4 20.058594 Z "/>
<path style=" fill:#8D6C9F;" d="M 14 20.058594 C 14.550781 20.058594 15 19.613281 15 19.058594 L 15 17.058594 C 15 16.507813 14.550781 16.058594 14 16.058594 C 13.449219 16.058594 13 16.507813 13 17.058594 L 13 19.058594 C 13 19.613281 13.449219 20.058594 14 20.058594 Z "/>
<path style=" fill:#8D6C9F;" d="M 19 20.058594 C 19.550781 20.058594 20 19.613281 20 19.058594 L 20 17.058594 C 20 16.507813 19.550781 16.058594 19 16.058594 C 18.449219 16.058594 18 16.507813 18 17.058594 L 18 19.058594 C 18 19.613281 18.449219 20.058594 19 20.058594 Z "/>
<path style=" fill:#8D6C9F;" d="M 24 20.058594 C 24.550781 20.058594 25 19.613281 25 19.058594 L 25 17.058594 C 25 16.507813 24.550781 16.058594 24 16.058594 C 23.449219 16.058594 23 16.507813 23 17.058594 L 23 19.058594 C 23 19.613281 23.449219 20.058594 24 20.058594 Z "/>
<path style=" fill:#8D6C9F;" d="M 29 20.058594 C 29.550781 20.058594 30 19.613281 30 19.058594 L 30 17.058594 C 30 16.507813 29.550781 16.058594 29 16.058594 C 28.449219 16.058594 28 16.507813 28 17.058594 L 28 19.058594 C 28 19.613281 28.449219 20.058594 29 20.058594 Z "/>
<path style=" fill:#8D6C9F;" d="M 34 20.058594 C 34.550781 20.058594 35 19.613281 35 19.058594 L 35 17.058594 C 35 16.507813 34.550781 16.058594 34 16.058594 C 33.449219 16.058594 33 16.507813 33 17.058594 L 33 19.058594 C 33 19.613281 33.449219 20.058594 34 20.058594 Z "/>
<path style=" fill:#8D6C9F;" d="M 39 20.058594 C 39.550781 20.058594 40 19.613281 40 19.058594 L 40 17.058594 C 40 16.507813 39.550781 16.058594 39 16.058594 C 38.449219 16.058594 38 16.507813 38 17.058594 L 38 19.058594 C 38 19.613281 38.449219 20.058594 39 20.058594 Z "/>
<path style=" fill:#8D6C9F;" d="M 44 20.058594 C 44.550781 20.058594 45 19.613281 45 19.058594 L 45 17.058594 C 45 16.507813 44.550781 16.058594 44 16.058594 C 43.449219 16.058594 43 16.507813 43 17.058594 L 43 19.058594 C 43 19.613281 43.449219 20.058594 44 20.058594 Z "/>
<path style=" fill:#8D6C9F;" d="M 49 20.058594 C 49.550781 20.058594 50 19.613281 50 19.058594 L 50 17.058594 C 50 16.507813 49.550781 16.058594 49 16.058594 C 48.449219 16.058594 48 16.507813 48 17.058594 L 48 19.058594 C 48 19.613281 48.449219 20.058594 49 20.058594 Z "/>
<path style=" fill:#8D6C9F;" d="M 54 20.058594 C 54.550781 20.058594 55 19.613281 55 19.058594 L 55 17.058594 C 55 16.507813 54.550781 16.058594 54 16.058594 C 53.449219 16.058594 53 16.507813 53 17.058594 L 53 19.058594 C 53 19.613281 53.449219 20.058594 54 20.058594 Z "/>
<path style=" fill:#8D6C9F;" d="M 59 20.058594 C 59.550781 20.058594 60 19.613281 60 19.058594 L 60 17.058594 C 60 16.507813 59.550781 16.058594 59 16.058594 C 58.449219 16.058594 58 16.507813 58 17.058594 L 58 19.058594 C 58 19.613281 58.449219 20.058594 59 20.058594 Z "/>
</g>
</svg>
